# xmcd
# 
# Track frame offsets:
#     150
#     44045
#     60115
#     79382
#     100132
#     120657
#     135322
#     158080
#     174572
# 
# Disc length: 2756
# 
# Revision: 4
# Processed by: cddbd v1.5.2PL0 Copyright (c) Steve Scherf et al.
# Submitted via: fre:ac v1.0.31
# 
DISCID=6d0ac209
DTITLE=Various Artist - Ρεμπέτικο
DYEAR=2009
DGENRE=Folklore
TTITLE0=ΣΤΑΥΡΟΣ ΞΑΡΧΑΚΟΣ - Μάνα μου Ελλάς
TTITLE1=Ορχήστρα - Τσιφτετέλι χιτζασκάρ
TTITLE2=Νίκος Δημητράτος and Χορωδία - Τα παιδιά της Άμυνας
TTITLE3=Νίκος Δημητράτος - Στης πίκρας τα ξερόνησα
TTITLE4=Κώστας Τσίγκος and Χορωδία - Στου Θωμά
TTITLE5=Ορχήστρα - Χασάπικο
TTITLE6=Σωτηρία Λεονάρδου and Χορωδία - Καίγομαι - καίγομαι
TTITLE7=Ορχήστρα - Χόρα
TTITLE8=Θόδωρος Πολυκανδριώτης - Ερηνάκι
EXTD=
EXTT0=
EXTT1=
EXTT2=
EXTT3=
EXTT4=
EXTT5=
EXTT6=
EXTT7=
EXTT8=
PLAYORDER=
